<svg id="Layer_1" data-name="Layer 1" xmlns="http://www.w3.org/2000/svg" viewBox="0 0 112 76"><defs><style>.cls-1{fill:#fff;}.cls-2{isolation:isolate;}.cls-3{fill:navy;}.cls-4{fill:#fe853c;}</style></defs><g id="Group_114" data-name="Group 114"><g id="Rectangle_14006" data-name="Rectangle 14006"><rect class="cls-1" width="112" height="76" rx="7"/></g><g id="NSRS" class="cls-2"><g class="cls-2"><path class="cls-3" d="M30.45,10.75h4.29V52H31.18L21.92,23.69l.28,10.4V52H17.73V10.75h3.65l9.56,28.08L30.45,26.9Z" transform="translate(-0.35 -1)"/><path class="cls-3" d="M41,23.52A13,13,0,0,1,40.6,20a13.31,13.31,0,0,1,1.65-7.11q1.65-2.64,6.32-2.64,6,0,7.08,5.77a34.89,34.89,0,0,1,.47,6.26V24.7H51.48V21.93a22.92,22.92,0,0,0-.4-5.3,3.5,3.5,0,0,0-1-1.8,2.43,2.43,0,0,0-1.52-.45A2.72,2.72,0,0,0,46,15.67a7.49,7.49,0,0,0-.78,3.82A7.48,7.48,0,0,0,46,23.2a12.29,12.29,0,0,0,1.73,2.23c.69.71,1.07,1.12,1.15,1.21l2.81,3a16.74,16.74,0,0,1,5.07,11.86c0,3.56-.56,6.28-1.66,8.16s-3.2,2.83-6.29,2.83q-5.6,0-7.1-4.92a24.81,24.81,0,0,1-.87-7.25V36.06h4.71v4.2a20.4,20.4,0,0,0,.66,6.29,2.43,2.43,0,0,0,2.44,1.77,3.07,3.07,0,0,0,2.46-.83A4.45,4.45,0,0,0,51.86,45c.07-1.15.11-2.43.11-3.85q0-4.29-3.78-8.06l-2.69-2.7A16.81,16.81,0,0,1,41,23.52Z" transform="translate(-0.35 -1)"/><path class="cls-3" d="M61.93,10.75h8.65c2.45,0,4.22.51,5.29,1.52S77.6,15,77.82,17.45c.09,1,.14,2.56.14,4.68a15,15,0,0,1-.83,5.33,4.4,4.4,0,0,1-2.94,2.79,3.18,3.18,0,0,1,2.34,1.63,11.65,11.65,0,0,1,1.13,4.36q.32,3,.32,8.88T78.36,52H73.53q-.37-.75-.37-13.9c0-3-.29-4.67-.87-5.14a4.07,4.07,0,0,0-2.63-.72l-2.88-.16V52H61.93Zm11.23,10.1q0-4.76-.86-5.51a3.63,3.63,0,0,0-2.47-.75h-3V28.52h3.09A3.25,3.25,0,0,0,71.94,28a3.45,3.45,0,0,0,.93-2.07,28.52,28.52,0,0,0,.29-4.78Z" transform="translate(-0.35 -1)"/><path class="cls-3" d="M83.8,23.52A12.6,12.6,0,0,1,83.37,20,13.22,13.22,0,0,1,85,12.87q1.65-2.64,6.31-2.64,6,0,7.08,5.77a34.89,34.89,0,0,1,.47,6.26V24.7H94.25V21.93a22.35,22.35,0,0,0-.4-5.3,3.5,3.5,0,0,0-1-1.8,2.44,2.44,0,0,0-1.53-.45,2.73,2.73,0,0,0-2.53,1.29A7.61,7.61,0,0,0,88,19.49a7.49,7.49,0,0,0,.7,3.71,12.35,12.35,0,0,0,1.74,2.23c.68.71,1.07,1.12,1.14,1.21l2.82,3A16.77,16.77,0,0,1,99.5,41.48q0,5.34-1.65,8.16t-6.3,2.83q-5.6,0-7.1-4.92a24.81,24.81,0,0,1-.87-7.25V36.06H88.3v4.2A20.48,20.48,0,0,0,89,46.55a2.43,2.43,0,0,0,2.44,1.77,3,3,0,0,0,2.46-.83A4.44,4.44,0,0,0,94.64,45c.07-1.15.1-2.43.1-3.85q0-4.29-3.77-8.06l-2.7-2.7C85.87,27.88,84.37,25.6,83.8,23.52Z" transform="translate(-0.35 -1)"/></g></g><g id="Rectangle_14005" data-name="Rectangle 14005"><rect class="cls-4" x="14" y="55" width="85" height="18"/></g><g id="Monitoring" class="cls-2"><g class="cls-2"><path class="cls-1" d="M25.46,59h1.77V71H26V66.17l.11-4.49L24.45,71H23.17l-1.7-9.3.12,4.49V71H20.33V59H22.1l1.72,9.89Z" transform="translate(-0.35 -1)"/><path class="cls-1" d="M30.74,62.24a4,4,0,0,1,.74-2.82,2.23,2.23,0,0,1,1.68-.6,1.94,1.94,0,0,1,2.07,1.32,6.69,6.69,0,0,1,.27,2.1v5.3A5.44,5.44,0,0,1,35,70.28a2,2,0,0,1-1.84.86,2,2,0,0,1-1.86-.86,5.47,5.47,0,0,1-.53-2.74Zm3.34-.09a5.14,5.14,0,0,0-.18-1.63.74.74,0,0,0-.75-.48.79.79,0,0,0-.78.49,4.45,4.45,0,0,0-.22,1.62v5.4a6.27,6.27,0,0,0,.19,1.87.85.85,0,0,0,1.55,0,6,6,0,0,0,.19-1.87Z" transform="translate(-0.35 -1)"/><path class="cls-1" d="M42.72,59H44V71h-1l-2.7-8.26.08,3V71H39V59h1.06l2.79,8.19-.14-3.48Z" transform="translate(-0.35 -1)"/><path class="cls-1" d="M47.73,59h1.41V71H47.73Z" transform="translate(-0.35 -1)"/><path class="cls-1" d="M52.11,59h4v1.17H54.84V71h-1.4V60.14H52.11Z" transform="translate(-0.35 -1)"/><path class="cls-1" d="M58.8,62.24a4,4,0,0,1,.74-2.82,2.23,2.23,0,0,1,1.69-.6,1.94,1.94,0,0,1,2.06,1.32,6.69,6.69,0,0,1,.27,2.1v5.3A5.44,5.44,0,0,1,63,70.28a2.41,2.41,0,0,1-3.69,0,5.35,5.35,0,0,1-.54-2.74Zm3.34-.09A5.14,5.14,0,0,0,62,60.52a.73.73,0,0,0-.75-.48.79.79,0,0,0-.78.49,4.45,4.45,0,0,0-.22,1.62v5.4a5.86,5.86,0,0,0,.2,1.87.74.74,0,0,0,.77.5.75.75,0,0,0,.77-.5,6,6,0,0,0,.19-1.87Z" transform="translate(-0.35 -1)"/><path class="cls-1" d="M67.07,59h2.52a2.26,2.26,0,0,1,1.55.44,2.32,2.32,0,0,1,.56,1.51c0,.3,0,.75,0,1.37a4.34,4.34,0,0,1-.25,1.55,1.3,1.3,0,0,1-.86.82,1,1,0,0,1,.69.47,3.63,3.63,0,0,1,.33,1.27c.06.58.09,1.45.09,2.59a9.67,9.67,0,0,0,.11,2H70.45a32.55,32.55,0,0,1-.11-4c0-.87-.08-1.37-.25-1.5a1.17,1.17,0,0,0-.76-.21l-.85,0V71H67.07Zm3.27,3c0-.93-.08-1.47-.25-1.61a1,1,0,0,0-.72-.22h-.89v4.06h.91A.92.92,0,0,0,70,64a.93.93,0,0,0,.27-.6A7.88,7.88,0,0,0,70.34,62Z" transform="translate(-0.35 -1)"/><path class="cls-1" d="M75.37,59h1.42V71H75.37Z" transform="translate(-0.35 -1)"/><path class="cls-1" d="M84.26,59h1.25V71h-1l-2.7-8.26.08,3V71h-1.3V59h1.06l2.79,8.19-.14-3.48Z" transform="translate(-0.35 -1)"/><path class="cls-1" d="M89,62.37c0-1.77.42-2.86,1.26-3.29a2.32,2.32,0,0,1,1.08-.25,1.93,1.93,0,0,1,2.23,1.7,11,11,0,0,1,.14,1.87v.93H92.36V61.76a3.41,3.41,0,0,0-.18-1.31.74.74,0,0,0-.74-.4.78.78,0,0,0-.78.5,4.78,4.78,0,0,0-.22,1.76v5.06a7.1,7.1,0,0,0,.19,2,.78.78,0,0,0,.79.56.8.8,0,0,0,.8-.58,6.69,6.69,0,0,0,.21-2V65.78h-1v-1.1h2.27V71H93l-.2-.93a1.51,1.51,0,0,1-1.54,1.05,1.83,1.83,0,0,1-1.68-.89A5.47,5.47,0,0,1,89,67.42Z" transform="translate(-0.35 -1)"/></g></g></g></svg>