<svg xmlns="http://www.w3.org/2000/svg" width="53" height="53" viewBox="0 0 53 53">
  <g id="financial_assistance_icon" transform="translate(-719 -160)">
    <g id="Ellipse_151" data-name="Ellipse 151" transform="translate(719 160)" fill="none" stroke="#b548c6" stroke-width="1">
      <circle cx="26.5" cy="26.5" r="26.5" stroke="none"/>
      <circle cx="26.5" cy="26.5" r="26" fill="none"/>
    </g>
    <g id="Group_39419" data-name="Group 39419" transform="translate(1452.557 -24.06)">
      <path id="Path_4591" data-name="Path 4591" d="M-723,210.763a13.933,13.933,0,0,1,.564-1.788,5.173,5.173,0,0,1,5-2.913,5.425,5.425,0,0,1,2.331.694.368.368,0,0,0,.329.008c1.181-1.034,2.351-2.081,3.551-3.149a5.249,5.249,0,0,1-1.626-4.57,4.986,4.986,0,0,1,1.573-3.093,5.261,5.261,0,0,1,6.619-.541,5.346,5.346,0,0,1,1.475,7.153l2.21,1.849a5.2,5.2,0,0,1,4.518-1.141,5.146,5.146,0,0,1,3.181,2.093,5.281,5.281,0,0,1-.6,6.811,5.238,5.238,0,0,1-7,.324,5.311,5.311,0,0,1-.747-7.448l-2.058-1.72a14.746,14.746,0,0,1-1.578,1.086,5.012,5.012,0,0,1-4.879-.053.5.5,0,0,0-.685.089c-1.018.932-2.057,1.841-3.088,2.759-.08.072-.157.148-.192.181a17.19,17.19,0,0,1,1.067,1.613,5.258,5.258,0,0,1-4.229,7.54,5.24,5.24,0,0,1-5.685-4.533,1.06,1.06,0,0,0-.055-.169Zm19.711-10.974a4.383,4.383,0,0,0-4.25-4.4,4.378,4.378,0,0,0-4.467,4.337,4.362,4.362,0,0,0,4.266,4.381A4.358,4.358,0,0,0-703.289,199.788Zm-10.1,11.51a4.364,4.364,0,0,0-4.35-4.357,4.38,4.38,0,0,0-4.354,4.36,4.382,4.382,0,0,0,4.372,4.373A4.364,4.364,0,0,0-713.393,211.3Zm15.841,1.484a4.378,4.378,0,0,0,4.355-4.352,4.379,4.379,0,0,0-4.359-4.38A4.38,4.38,0,0,0-701.9,208.4,4.37,4.37,0,0,0-697.552,212.782Z" transform="translate(0 0)" fill="#b548c6"/>
      <path id="Path_4592" data-name="Path 4592" d="M-565.616,432.63h-2.93v10.619h2.911c.006-.106.017-.211.017-.316,0-.591,0-1.181,0-1.772,0-.365.163-.561.439-.567s.458.2.461.577c.005.811.007,1.622,0,2.432,0,.4-.169.562-.571.563q-1.8,0-3.6,0c-.414,0-.581-.163-.581-.586q0-5.646,0-11.292c0-.425.158-.577.584-.579q1.784-.006,3.567,0c.45,0,.6.144.6.592,0,2.162,0,7.329,0,9.491,0,.389-.162.582-.455.579s-.445-.194-.445-.588c0-1.912,0-6.828,0-8.74Z" transform="translate(-142.002 -219.404)" fill="#b548c6"/>
      <path id="Path_4593" data-name="Path 4593" d="M-486.142,475q0-2.057,0-4.114c0-.558.115-.676.659-.677q1.723,0,3.446,0c.5,0,.64.141.641.643q0,4.144,0,8.287c0,.483-.151.636-.622.636q-1.753,0-3.506,0c-.477,0-.616-.142-.617-.633Q-486.144,477.073-486.142,475Zm3.832-3.869h-2.912v7.721h2.912Z" transform="translate(-219.067 -255.015)" fill="#b548c6"/>
      <path id="Path_4594" data-name="Path 4594" d="M-402.944,511.987c0-.91,0-1.821,0-2.731,0-.429.148-.579.573-.58q1.8,0,3.594,0c.42,0,.574.158.575.584q0,2.746,0,5.492c0,.44-.159.6-.595.6q-1.767,0-3.534,0c-.466,0-.613-.145-.614-.6C-402.945,513.828-402.944,512.907-402.944,511.987Zm.924-2.4v4.844h2.9v-4.844Z" transform="translate(-296.016 -290.59)" fill="#b548c6"/>
      <path id="Path_4595" data-name="Path 4595" d="M-647.908,512.039q0,1.335,0,2.671c0,.509-.135.647-.631.647q-1.737,0-3.474,0c-.494,0-.638-.146-.639-.649q0-2.7,0-5.4c0-.483.144-.627.625-.627q1.752,0,3.5,0c.482,0,.614.136.615.629Q-647.906,510.674-647.908,512.039Zm-3.821-2.443v4.843h2.9V509.6Z" transform="translate(-65.064 -290.594)" fill="#b548c6"/>
      <g id="Group_39416" data-name="Group 39416" transform="translate(-699.623 206.165)">
        <path id="Path_4596" data-name="Path 4596" d="M-408.352,349.983c.02.008.04.015.06.023a.258.258,0,0,1,.15.288.252.252,0,0,1-.24.2c-.186,0-.372,0-.557,0h-.072a1.259,1.259,0,0,1,.225.593h.272a1.219,1.219,0,0,1,.145.005.258.258,0,0,1,.229.271.259.259,0,0,1-.25.253c-.132.005-.264,0-.4,0-.028,0-.045.005-.055.036a1.215,1.215,0,0,1-.708.755l-.048.022c.016.01.028.018.04.025a.973.973,0,0,1,.432.453,3.426,3.426,0,0,1,.22.712c.076.292.158.584.24.874a.527.527,0,0,0,.066.14.31.31,0,0,1-.067.426.31.31,0,0,1-.418-.04,1.034,1.034,0,0,1-.241-.446c-.11-.4-.21-.8-.315-1.2a1.094,1.094,0,0,0-.226-.464.69.69,0,0,0-.493-.228c-.217-.013-.435-.009-.652-.012-.089,0-.178,0-.266,0a.257.257,0,0,1-.249-.232.254.254,0,0,1,.188-.273.475.475,0,0,1,.114-.011c.3,0,.6,0,.9-.008a.945.945,0,0,0,.684-.291.665.665,0,0,0,.145-.239h-1.983a.269.269,0,0,1-.273-.174.263.263,0,0,1,.213-.351.6.6,0,0,1,.085-.005h1.984a.659.659,0,0,0-.183-.333.871.871,0,0,0-.471-.229,1.754,1.754,0,0,0-.3-.03c-.355,0-.71,0-1.065,0a.259.259,0,0,1-.259-.155.253.253,0,0,1,.148-.341l.046-.018Z" transform="translate(411.763 -349.983)" fill="#b548c6"/>
      </g>
      <g id="Group_39417" data-name="Group 39417" transform="translate(-709.616 197.322)">
        <path id="Path_4597" data-name="Path 4597" d="M-541.395,232.254l.06.023a.258.258,0,0,1,.15.288.252.252,0,0,1-.24.2c-.186,0-.372,0-.558,0h-.072a1.259,1.259,0,0,1,.225.593h.272a1.2,1.2,0,0,1,.145.005.258.258,0,0,1,.229.271.258.258,0,0,1-.25.253c-.132.005-.264,0-.4,0-.028,0-.045.005-.055.036a1.216,1.216,0,0,1-.708.755l-.048.022c.017.01.028.019.04.025a.974.974,0,0,1,.432.453,3.417,3.417,0,0,1,.22.712c.076.292.158.584.24.875a.531.531,0,0,0,.066.14.31.31,0,0,1-.067.426.311.311,0,0,1-.419-.04,1.035,1.035,0,0,1-.241-.446c-.11-.4-.21-.8-.315-1.2a1.093,1.093,0,0,0-.226-.464.69.69,0,0,0-.493-.228c-.217-.013-.435-.01-.652-.013-.089,0-.178,0-.266,0a.257.257,0,0,1-.249-.232.254.254,0,0,1,.189-.273.484.484,0,0,1,.114-.011c.3,0,.6,0,.9-.008a.946.946,0,0,0,.684-.291.665.665,0,0,0,.145-.239h-1.983a.269.269,0,0,1-.273-.174.263.263,0,0,1,.213-.351.605.605,0,0,1,.085-.005h1.984a.658.658,0,0,0-.183-.333.869.869,0,0,0-.471-.229,1.755,1.755,0,0,0-.3-.03c-.355,0-.71,0-1.065,0a.259.259,0,0,1-.259-.155.254.254,0,0,1,.148-.341l.046-.018Z" transform="translate(544.806 -232.254)" fill="#b548c6"/>
      </g>
      <g id="Group_39418" data-name="Group 39418" transform="translate(-719.826 209.163)">
        <path id="Path_4598" data-name="Path 4598" d="M-677.329,389.9l.06.023a.258.258,0,0,1,.15.288.252.252,0,0,1-.24.2c-.186,0-.372,0-.557,0h-.072a1.261,1.261,0,0,1,.225.593h.272a1.213,1.213,0,0,1,.145.005.258.258,0,0,1,.229.271.258.258,0,0,1-.25.253c-.132.005-.264,0-.4,0-.028,0-.045.005-.055.036a1.216,1.216,0,0,1-.708.755l-.048.022c.016.01.028.018.04.025a.974.974,0,0,1,.432.453,3.415,3.415,0,0,1,.22.712c.076.293.158.584.24.875a.524.524,0,0,0,.066.14.31.31,0,0,1-.067.426.31.31,0,0,1-.418-.04,1.032,1.032,0,0,1-.241-.446c-.11-.4-.21-.8-.315-1.2a1.1,1.1,0,0,0-.226-.464.691.691,0,0,0-.493-.228c-.217-.013-.435-.009-.652-.012-.089,0-.178,0-.266,0a.257.257,0,0,1-.249-.232.254.254,0,0,1,.188-.273.483.483,0,0,1,.114-.011c.3,0,.6,0,.9-.008a.945.945,0,0,0,.684-.291.662.662,0,0,0,.145-.239h-1.983a.269.269,0,0,1-.272-.174.263.263,0,0,1,.213-.351.589.589,0,0,1,.085-.005h1.984a.66.66,0,0,0-.183-.333.871.871,0,0,0-.471-.229,1.759,1.759,0,0,0-.3-.03c-.355,0-.71,0-1.065,0a.259.259,0,0,1-.259-.155.254.254,0,0,1,.148-.341l.046-.018Z" transform="translate(680.74 -389.901)" fill="#b548c6"/>
      </g>
    </g>
  </g>
</svg>
