<svg xmlns="http://www.w3.org/2000/svg" width="53" height="53" viewBox="0 0 53 53">
  <g id="insurance_modules_icon" transform="translate(-997 -160)">
    <g id="Ellipse_152" data-name="Ellipse 152" transform="translate(997 160)" fill="none" stroke="#f35325" stroke-width="1">
      <circle cx="26.5" cy="26.5" r="26.5" stroke="none"/>
      <circle cx="26.5" cy="26.5" r="26" fill="none"/>
    </g>
    <g id="Group_39420" data-name="Group 39420" transform="translate(1577.894 -22.535)">
      <path id="Path_4611" data-name="Path 4611" d="M-368.894,371.081c-.822-.476-1.678-.9-2.459-1.437a10.089,10.089,0,0,1-3.658-4.2,7,7,0,0,1-.632-2.848c-.008-1.61,0-3.221,0-4.831a.6.6,0,0,1,.485-.68c2.033-.687,4.065-1.378,6.1-2.05a1.1,1.1,0,0,1,.646,0q3.032,1,6.049,2.04a2.322,2.322,0,0,1,.544.394v5.617l-.049.208a15.985,15.985,0,0,1-.421,1.722,9.538,9.538,0,0,1-3.23,4.2,15.809,15.809,0,0,1-3.051,1.864Zm-5.6-10.4q0,.85,0,1.7a6.29,6.29,0,0,0,1,3.446,11.481,11.481,0,0,0,4.637,3.967.375.375,0,0,0,.3-.019,12.314,12.314,0,0,0,3.974-3.093A6.294,6.294,0,0,0-363,362.873c.051-1.546.027-3.094.024-4.641a.3.3,0,0,0-.178-.211q-2.7-.924-5.411-1.827a.566.566,0,0,0-.335,0c-1.8.6-3.591,1.211-5.388,1.811a.266.266,0,0,0-.216.3C-374.493,359.1-374.5,359.894-374.5,360.685Z" transform="translate(-177.749 -148.717)" fill="#f35325"/>
      <path id="Path_4612" data-name="Path 4612" d="M-559.967,203.917c.145.518.278,1,.419,1.482a.46.46,0,0,0,.135.194,1.358,1.358,0,0,1,.493.991,2.778,2.778,0,0,0,1.114,2.16,1.569,1.569,0,0,1,.578,1.536,6.284,6.284,0,0,1-.559,2.181,2.7,2.7,0,0,1-1.628,1.4c-1.428.461-2.846.95-4.272,1.418a2.569,2.569,0,0,0-1.81,1.962c-.129.541-.267,1.081-.411,1.663h11.135c.09,0,.18,0,.27,0a.58.58,0,0,1,.555.584.576.576,0,0,1-.552.556c-.081.006-.162,0-.243,0h-11.666c-.081,0-.162,0-.243,0a.566.566,0,0,1-.549-.725c.211-.873.411-1.751.66-2.614a3.559,3.559,0,0,1,2.383-2.486c1.469-.505,2.946-.99,4.424-1.472a1.443,1.443,0,0,0,.831-.645,4.5,4.5,0,0,0,.528-2.178c0-.078-.084-.166-.142-.239-.355-.44-.739-.859-1.063-1.32a2.552,2.552,0,0,1-.458-1.473.5.5,0,0,0-.272-.512.515.515,0,0,1-.211-.3c-.186-.637-.374-1.274-.524-1.92a1.206,1.206,0,0,1,.38-1.154.5.5,0,0,0,.132-.3c.034-.674.09-1.35.068-2.023a5.1,5.1,0,0,1,1.144-3.35,6.139,6.139,0,0,1,3.882-2.537,5.445,5.445,0,0,1,4.654,1.174,2.683,2.683,0,0,1,.8,1.164.408.408,0,0,0,.152.206,2.426,2.426,0,0,1,1.182,2.068c.058,1.068.045,2.14.055,3.211a.559.559,0,0,0,.171.45,1.619,1.619,0,0,1,.334.514.585.585,0,0,1-.326.8.576.576,0,0,1-.741-.352.379.379,0,0,0-.175-.175c-.327-.134-.408-.233-.409-.61,0-.9.007-1.8-.006-2.7a11.035,11.035,0,0,0-.089-1.289,1.211,1.211,0,0,0-.725-1,.923.923,0,0,1-.522-.7,1.406,1.406,0,0,0-.371-.607,3.761,3.761,0,0,0-2.288-1.042,5.1,5.1,0,0,0-5.5,3.871,7.5,7.5,0,0,0-.058,1.156c-.031.728-.075,1.457-.087,2.185A.708.708,0,0,1-559.967,203.917Z" transform="translate(0 0)" fill="#f35325"/>
      <path id="Path_4613" data-name="Path 4613" d="M-324.753,430.054c.088-.084.16-.15.228-.219q1.613-1.612,3.225-3.224a1.435,1.435,0,0,1,.244-.21.558.558,0,0,1,.693.087.561.561,0,0,1,.084.694,1.444,1.444,0,0,1-.21.245q-1.888,1.89-3.778,3.778c-.421.42-.724.4-1.1-.061l-2.056-2.57c-.039-.049-.079-.1-.116-.149a.569.569,0,0,1,.063-.819.576.576,0,0,1,.836.1c.46.564.911,1.137,1.366,1.705C-325.1,429.624-324.932,429.832-324.753,430.054Z" transform="translate(-222.258 -214.899)" fill="#f35325"/>
    </g>
  </g>
</svg>
