<svg xmlns="http://www.w3.org/2000/svg" width="53" height="53" viewBox="0 0 53 53">
  <g id="kia_icon" transform="translate(-442 -327)">
    <g id="Ellipse_155" data-name="Ellipse 155" transform="translate(442 327)" fill="none" stroke="#05a6f0" stroke-width="1">
      <circle cx="26.5" cy="26.5" r="26.5" stroke="none"/>
      <circle cx="26.5" cy="26.5" r="26" fill="none"/>
    </g>
    <g id="Group_39422" data-name="Group 39422" transform="translate(928.488 114.638)">
      <path id="Path_4619" data-name="Path 4619" d="M-464.161,245.624h-2.321v.35q0,3.175,0,6.349a1.339,1.339,0,0,1-.014.317.437.437,0,0,1-.458.366.437.437,0,0,1-.445-.38,1.391,1.391,0,0,1-.01-.289q0-3.03,0-6.059v-.351a2.7,2.7,0,0,0-.251.12,3.155,3.155,0,0,0-1.6,2.753c-.023,1.179-.005,2.358-.006,3.537,0,.077,0,.155,0,.232a.464.464,0,0,1-.452.441.44.44,0,0,1-.463-.426c.006-1.458-.067-2.925.066-4.372a4.07,4.07,0,0,1,3.968-3.545c.8-.014,1.6,0,2.452,0,0-.421-.032-.835.008-1.241a1.017,1.017,0,0,0-.524-1.047,7.244,7.244,0,0,1-3.195-6.142c0-.406,0-.812,0-1.218a.7.7,0,0,0-.013-.081c-.367-.066-.465-.321-.453-.673.016-.5,0-1,0-1.507,0-.407.062-.493.416-.627.053-.706.053-1.407.167-2.088a6.446,6.446,0,0,1,5.61-5.272,11.193,11.193,0,0,1,1.128-.051c1.382-.006,2.764,0,4.146,0,.436,0,.593.158.595.594,0,.578,0,1.157,0,1.752a3.777,3.777,0,0,1,1.9.831,3.646,3.646,0,0,1,1.347,2.778c.015.473,0,.946,0,1.448.419.069.482.364.47.728-.016.483,0,.966,0,1.449,0,.407-.064.5-.464.651,0,.4,0,.8,0,1.206a7.4,7.4,0,0,1-3.526,6.469.421.421,0,0,0-.176.284c-.018.512-.008,1.024-.008,1.536v.219c.111,0,.212,0,.313,0,.869.017,1.746-.036,2.6.065a4.112,4.112,0,0,1,3.57,3.984c.023,1.256.008,2.513.006,3.769a.471.471,0,0,1-.454.529c-.281.006-.471-.2-.471-.54,0-1.227.017-2.455-.007-3.682a3.167,3.167,0,0,0-1.558-2.72c-.078-.05-.166-.085-.291-.148v.342q0,3.015,0,6.03c0,.087,0,.174,0,.261a.461.461,0,0,1-.466.457.465.465,0,0,1-.457-.467c-.006-.087,0-.174,0-.261q0-3.146,0-6.291v-.359h-2.32c0,.267,0,.562,0,.857a4.177,4.177,0,0,1-3.333,4.115,4.185,4.185,0,0,1-5.014-3.954C-464.167,246.313-464.161,245.975-464.161,245.624Zm-2.285-10.7a.313.313,0,0,0-.033.1,20.258,20.258,0,0,0,.121,2.453,6.468,6.468,0,0,0,7.761,5.172,6.481,6.481,0,0,0,5.086-5.912c.043-.6.006-1.207.006-1.815Zm12.949-2.8c0-.517.012-1,0-1.482a2.787,2.787,0,0,0-2.625-2.675c-.5-.027-.616-.156-.616-.663,0-.547,0-1.094,0-1.662H-457c-1.314,0-2.629-.031-3.941.007a5.451,5.451,0,0,0-5.049,3.286,6.136,6.136,0,0,0-.47,3.188Zm-9.736,13.492c0,.34-.006.659,0,.977a3.26,3.26,0,0,0,2.939,3.158,3.208,3.208,0,0,0,3.434-2.446,12.112,12.112,0,0,0,.16-1.671c-.45-.176-.505-.258-.506-.691,0-.572,0-1.145,0-1.75a7.462,7.462,0,0,1-5.567,0c0,.62,0,1.2,0,1.777C-462.772,245.375-462.836,245.465-463.233,245.617Zm-3.7-11.643h13.879v-.894h-13.879Z" transform="translate(0 0)" fill="#05a6f0"/>
    </g>
  </g>
</svg>
