<svg xmlns="http://www.w3.org/2000/svg" width="53" height="53" viewBox="0 0 53 53">
  <g id="kiaa_icon" transform="translate(-719 -327)">
    <g id="Ellipse_156" data-name="Ellipse 156" transform="translate(719 327)" fill="none" stroke="#8f004a" stroke-width="1">
      <circle cx="26.5" cy="26.5" r="26.5" stroke="none"/>
      <circle cx="26.5" cy="26.5" r="26" fill="none"/>
    </g>
    <g id="Group_39423" data-name="Group 39423" transform="translate(-398.584 156.965)">
      <path id="Path_4620" data-name="Path 4620" d="M1130.234,210.535v-2.2c.085-.154.216-.17.511-.17.071,0,.145,0,.219-.005l.205-.014v-.206c0-.122,0-.242,0-.359,0-.268,0-.52-.005-.777-.016-.407.077-.5.277-.532l.18-.033v-15.36l-.205-.014-.082-.006c-.058,0-.11-.009-.163-.01-.433-.008-.469-.043-.47-.464q0-.714,0-1.427c0-.457.033-.489.494-.489h6.046v-3.255h-1.009c-.305,0-.372-.067-.376-.359-.007-.544-.007-1.1,0-1.642,0-.29.08-.365.371-.365h15.713c.278,0,.355.075.359.35.009.541.009,1.1,0,1.668,0,.276-.075.345-.36.348l-.309,0h-.72v3.255h6.034a2.076,2.076,0,0,1,.272.013c.2.026.223.124.225.217.012.643.012,1.287,0,1.914,0,.065,0,.2-.242.226-.1.011-.192.014-.3.018l-.171.007-.209.011v14.861c0,.018,0,.036,0,.055a.918.918,0,0,0,.01.205.375.375,0,0,0,.237.3c.189.051.235.145.23.476,0,.273,0,.539,0,.821,0,.12,0,.24,0,.361v.22h.481c.42,0,.454.038.454.468,0,.146,0,.292,0,.438,0,.335,0,.682.006,1.024a.448.448,0,0,1-.177.437Zm.5-.514h26.7v-1.335h-26.7Zm.938-1.876h24.806v-1.334h-24.806Zm19.241-1.868H1156V190.864h-5.088Zm-13.137,0h3.237v-.411c0-.129,0-.251,0-.373,0-.328,0-.661,0-.983,0-.719-.008-1.463.057-2.183a3.029,3.029,0,0,1,2.973-2.606,2.707,2.707,0,0,1,.333.021,3.063,3.063,0,0,1,2.767,3.105c.007.667.005,1.346,0,2q0,.453,0,.907v.515h3.237V185.234h-12.606Zm-5.615,0h5.082V190.862h-5.082Zm11.915-6.046a2.532,2.532,0,0,0-2.521,2.26c-.037.647-.038,1.3-.039,1.939,0,.271,0,.542,0,.812,0,.181,0,.361,0,.549,0,.087,0,.485,0,.485h5.055l.045-.161c0-.012.007-.022.01-.031a.378.378,0,0,0,.024-.124q0-.46,0-.918c0-.734.007-1.494-.006-2.241a2.571,2.571,0,0,0-2.365-2.56C1144.213,200.229,1144.145,200.226,1144.078,200.226Zm6.833-9.9h6.034v-1.34h-6.034Zm-19.693-.006h6.042v-1.339h-6.042Zm5.154-5.617h15.416v-1.351h-15.416Z" fill="#8f004a"/>
      <path id="Path_4621" data-name="Path 4621" d="M1303.307,249c-.124,0-.226,0-.321-.005-.252-.009-.326-.084-.331-.331-.01-.537-.01-1.091,0-1.694,0-.262.083-.343.339-.347.28,0,.564-.007.846-.007s.566,0,.849.007c.256,0,.336.085.34.346.009.524.009,1.069,0,1.668,0,.278-.077.352-.356.359-.106,0-.212,0-.318,0h-.536l-.259,0Zm-.139-.52h1.363v-.22c0-.073,0-.143,0-.213,0-.2,0-.392-.007-.585a.393.393,0,0,0-.336-.337c-.114-.005-.236-.008-.395-.008h-.625Z" transform="translate(-159.761 -59.092)" fill="#8f004a"/>
      <path id="Path_4622" data-name="Path 4622" d="M1252.742,249c-.305,0-.618,0-.93-.012-.187,0-.265-.083-.269-.272-.013-.575-.013-1.181,0-1.8,0-.2.087-.284.285-.289.3-.007.6-.011.9-.011s.6,0,.9.012c.177,0,.274.057.28.318,0,.2,0,.407,0,.607q0,.133,0,.266t0,.272c0,.2,0,.4,0,.6-.007.247-.1.3-.267.3C1253.345,248.993,1253.043,249,1252.742,249Zm-.69-.517h1.341v-1.342h-1.341Z" transform="translate(-112.397 -59.086)" fill="#8f004a"/>
      <path id="Path_4623" data-name="Path 4623" d="M1355.073,249c-.289,0-.582,0-.871-.01-.2,0-.291-.053-.3-.326,0-.2,0-.4,0-.6,0-.091,0-.181,0-.272s0-.176,0-.265c0-.191,0-.388,0-.581.006-.265.1-.316.278-.32.3-.008.6-.012.907-.012s.593,0,.894.011c.176,0,.286.058.29.312.009.6.009,1.19,0,1.75,0,.217-.084.3-.3.3C1355.676,248.994,1355.373,249,1355.073,249Zm-.654-.531h1.351v-1.338h-1.351Z" transform="translate(-207.252 -59.085)" fill="#8f004a"/>
      <path id="Path_4624" data-name="Path 4624" d="M1303.314,351.33c-.113,0-.226,0-.339,0-.234-.007-.284-.106-.289-.253-.018-.617-.018-1.24,0-1.853,0-.129.03-.255.307-.258q.444,0,.888,0t.864,0c.219,0,.3.079.3.292.014.585.014,1.182,0,1.773,0,.195-.057.294-.328.3-.111,0-.221,0-.332,0h-1.076Zm-.125-.519h1.352v-1.338h-1.352Z" transform="translate(-159.784 -153.922)" fill="#8f004a"/>
      <path id="Path_4625" data-name="Path 4625" d="M1303.3,300.218c-.125,0-.227,0-.323,0-.269-.009-.322-.115-.326-.309-.014-.61-.013-1.207,0-1.774,0-.183.055-.283.309-.286.292,0,.587-.006.876-.006s.585,0,.874.007c.224,0,.3.076.307.288.014.574.015,1.171,0,1.774,0,.193-.057.294-.332.309H1303.3Zm-.13-.52h1.341v-1.34h-1.341Z" transform="translate(-159.758 -106.554)" fill="#8f004a"/>
      <path id="Path_4626" data-name="Path 4626" d="M1252.731,351.345c-.3,0-.6,0-.9-.006-.208,0-.3-.089-.3-.3-.011-.616-.011-1.214,0-1.776,0-.169.057-.284.31-.289.112,0,.224,0,.335,0h1.078c.111,0,.223,0,.334,0,.254.005.3.1.307.284.01.609.009,1.216,0,1.8,0,.2-.084.272-.287.275C1253.323,351.343,1253.026,351.345,1252.731,351.345Zm-.688-.518h1.352v-1.341h-1.352Z" transform="translate(-112.392 -153.936)" fill="#8f004a"/>
      <path id="Path_4627" data-name="Path 4627" d="M1354.513,351.327c-.13,0-.237,0-.337,0-.205-.006-.283-.082-.286-.28-.01-.6-.01-1.2,0-1.8,0-.2.08-.276.282-.279.3,0,.6-.006.885-.006.309,0,.619,0,.921.006.183,0,.27.087.274.265.014.614.014,1.229,0,1.829,0,.133-.043.259-.307.27h-1.431Zm-.108-.512h1.339v-1.343h-1.339Z" transform="translate(-207.235 -153.919)" fill="#8f004a"/>
      <path id="Path_4628" data-name="Path 4628" d="M1355.094,300.216c-.277,0-.564,0-.854-.006-.257,0-.333-.081-.338-.344,0-.2,0-.4,0-.591,0-.085,0-.17,0-.255s0-.185,0-.277c0-.2,0-.4,0-.6.007-.255.1-.3.288-.305.29-.005.586-.008.882-.008s.595,0,.895.008c.223,0,.3.085.3.32.008.593.008,1.173,0,1.723,0,.239-.088.321-.335.324C1355.662,300.214,1355.379,300.216,1355.094,300.216Zm-.677-.525h1.343V298.35h-1.343Z" transform="translate(-207.251 -106.551)" fill="#8f004a"/>
      <path id="Path_4629" data-name="Path 4629" d="M1252.731,300.239c-.295,0-.59,0-.877-.008-.222,0-.307-.091-.31-.321-.008-.558-.009-1.137,0-1.723,0-.242.081-.317.331-.324.111,0,.221,0,.332,0h1.063c.107,0,.215,0,.322,0,.269.008.316.1.318.3.008.56.008,1.149,0,1.751,0,.232-.081.311-.309.315C1253.31,300.236,1253.016,300.239,1252.731,300.239Zm-.669-.521h1.341v-1.341h-1.341Z" transform="translate(-112.401 -106.572)" fill="#8f004a"/>
      <path id="Path_4630" data-name="Path 4630" d="M1431.661,313.025c-.3,0-.6,0-.891-.009-.209,0-.292-.09-.295-.307-.009-.567-.009-1.156,0-1.75,0-.224.081-.3.32-.311h1.4c.113,0,.225,0,.337,0,.254.007.3.1.3.288.008.564.008,1.163,0,1.778,0,.215-.083.3-.294.3C1432.249,313.023,1431.951,313.025,1431.661,313.025Zm-.678-.518h1.343v-1.339h-1.343Z" transform="translate(-278.201 -118.423)" fill="#8f004a"/>
      <path id="Path_4631" data-name="Path 4631" d="M1431.668,364.086c-.305,0-.615,0-.92-.006-.243,0-.274-.151-.276-.262-.013-.6-.013-1.22,0-1.829,0-.132.04-.267.3-.27.283,0,.578-.005.877-.005s.583,0,.875,0c.232,0,.308.077.314.307.005.2,0,.408,0,.608,0,.088,0,.177,0,.265s0,.189,0,.284c0,.2,0,.412,0,.615s-.082.282-.28.284C1432.26,364.084,1431.962,364.086,1431.668,364.086Zm-.689-.518h1.338v-1.342h-1.338Z" transform="translate(-278.195 -165.741)" fill="#8f004a"/>
      <path id="Path_4632" data-name="Path 4632" d="M1431.64,415.08c-.295,0-.6,0-.893-.008-.162,0-.271-.054-.274-.291-.009-.6-.009-1.2,0-1.777,0-.2.087-.29.28-.294.3-.007.6-.011.905-.011s.6,0,.9.01c.173,0,.275.057.286.318,0,.012,0,.023,0,.034v.836c0,.093,0,.186,0,.278,0,.2,0,.415,0,.62-.007.225-.1.273-.26.276C1432.268,415.077,1431.953,415.08,1431.64,415.08Zm-.661-.519h1.35v-1.341h-1.35Z" transform="translate(-278.198 -212.985)" fill="#8f004a"/>
      <path id="Path_4633" data-name="Path 4633" d="M1175.623,364.082c-.108,0-.216,0-.324,0-.237,0-.314-.078-.317-.3-.007-.559-.007-1.148,0-1.751,0-.233.077-.308.307-.311q.439,0,.878,0c.293,0,.587,0,.874.005.224,0,.3.085.308.316.008.551.008,1.131,0,1.723,0,.241-.083.32-.328.324-.111,0-.223,0-.334,0h-1.063Zm-.129-.516h1.349v-1.343h-1.349Z" transform="translate(-41.459 -165.738)" fill="#8f004a"/>
      <path id="Path_4634" data-name="Path 4634" d="M1176.16,313.009c-.3,0-.593,0-.876-.009-.173,0-.281-.057-.287-.311,0-.2,0-.4,0-.6q0-.137,0-.274t0-.271c0-.2,0-.4,0-.6.006-.256.1-.3.284-.307.292,0,.587-.007.876-.007.31,0,.622,0,.928.008.194,0,.274.087.277.288.01.592.01,1.19,0,1.777,0,.211-.088.295-.3.3C1176.752,313.006,1176.449,313.009,1176.16,313.009Zm-.645-.524h1.349v-1.337h-1.349Z" transform="translate(-41.474 -118.406)" fill="#8f004a"/>
      <path id="Path_4635" data-name="Path 4635" d="M1176.179,415.083c-.285,0-.579,0-.874-.007-.234,0-.3-.073-.31-.31-.005-.2,0-.406,0-.605,0-.089,0-.178,0-.268s0-.182,0-.273c0-.2,0-.4,0-.6.006-.253.115-.306.289-.31.289-.006.587-.01.883-.01s.592,0,.891.009c.185,0,.3.06.3.327.007.592.007,1.172,0,1.724,0,.232-.08.312-.307.315C1176.77,415.081,1176.475,415.083,1176.179,415.083Zm-.673-.521h1.348v-1.338h-1.348Z" transform="translate(-41.474 -212.987)" fill="#8f004a"/>
    </g>
  </g>
</svg>
