<svg xmlns="http://www.w3.org/2000/svg" width="53" height="53" viewBox="0 0 53 53">
  <g id="TOPS_icon" transform="translate(-1274 -160)">
    <g id="Ellipse_153" data-name="Ellipse 153" transform="translate(1274 160)" fill="none" stroke="#81bc06" stroke-width="1">
      <circle cx="26.5" cy="26.5" r="26.5" stroke="none"/>
      <circle cx="26.5" cy="26.5" r="26" fill="none"/>
    </g>
    <g id="Group_39421" data-name="Group 39421" transform="translate(2938.827 526.176)">
      <path id="Path_4614" data-name="Path 4614" d="M-1004.919-343.373a8.007,8.007,0,0,1,7.721-3.517,8.068,8.068,0,0,1,6.979,7.074,8.055,8.055,0,0,1-5.114,8.448,8.019,8.019,0,0,1-9.184-2.49c.213-.12.431-.231.636-.362s.391-.28.541-.389c.166.142.333.27.482.417a6.508,6.508,0,0,0,2.553,1.565,6.3,6.3,0,0,0,1.929.322,6.738,6.738,0,0,0,1.906-.229,6.489,6.489,0,0,0,2.7-1.5,6.41,6.41,0,0,0,2.072-3.954,6.438,6.438,0,0,0-1.663-5.349,6.4,6.4,0,0,0-2.62-1.753,6.369,6.369,0,0,0-2.3-.4A6.5,6.5,0,0,0-1002.4-344a6.517,6.517,0,0,0-1.164,1.227c-.035.049-.067.09-.13.044a5.16,5.16,0,0,0-1.194-.622C-1004.9-343.352-1004.9-343.36-1004.919-343.373Z" transform="translate(-631.868 -0.282)" fill="#81bc06"/>
      <path id="Path_4615" data-name="Path 4615" d="M-1236.15-207.8a4.8,4.8,0,0,1-.615,2.27,4.5,4.5,0,0,1-1.228,1.412,4.592,4.592,0,0,1-1.4.72,5.254,5.254,0,0,1-.915.183,5.347,5.347,0,0,1-.856.037,4,4,0,0,1-1.351-.25,6.278,6.278,0,0,1-1.024-.472,4.313,4.313,0,0,1-1.172-1.071,4.707,4.707,0,0,1-.572-.954,4.7,4.7,0,0,1-.407-1.759,5.268,5.268,0,0,1,.153-1.573,4.546,4.546,0,0,1,1.034-1.876,4.573,4.573,0,0,1,1.148-.913,4.9,4.9,0,0,1,1.271-.476,4.93,4.93,0,0,1,1.24-.133,5.306,5.306,0,0,1,1.62.29,4.656,4.656,0,0,1,1.621.967,4.28,4.28,0,0,1,.918,1.2A4.766,4.766,0,0,1-1236.15-207.8Zm-4.71,2.434a1.785,1.785,0,0,0,.906-.215,2.3,2.3,0,0,0,1.068-1.08,2.736,2.736,0,0,0-.057-2.657,2.173,2.173,0,0,0-1.036-.943,2.258,2.258,0,0,0-1.426-.145,2.221,2.221,0,0,0-1.138.615,2.452,2.452,0,0,0-.719,1.649,2.579,2.579,0,0,0,1.13,2.412A2.152,2.152,0,0,0-1240.86-205.367Z" transform="translate(-397.701 -130.9)" fill="#81bc06"/>
      <path id="Path_4616" data-name="Path 4616" d="M-1639.947-343.791a6.083,6.083,0,0,0-1.334.512.144.144,0,0,1-.131-.038,6.518,6.518,0,0,0-1.3-1.22,6.381,6.381,0,0,0-1.864-.931,6.212,6.212,0,0,0-1.782-.288,6.9,6.9,0,0,0-1.581.129,6.691,6.691,0,0,0-1.987.786,6.126,6.126,0,0,0-1.549,1.277c-.259.3-.472.642-.7.968a5.185,5.185,0,0,0-.689,1.509,6.777,6.777,0,0,0-.2.877,6.475,6.475,0,0,0,.012,2.152,6.446,6.446,0,0,0,.77,2.149,6.536,6.536,0,0,0,1.487,1.782,6.441,6.441,0,0,0,1.584.985,6.5,6.5,0,0,0,1.8.5,7.315,7.315,0,0,0,1.583.02,6.284,6.284,0,0,0,2.546-.82,6.651,6.651,0,0,0,1.445-1.115.147.147,0,0,1,.229-.023,3.8,3.8,0,0,0,1.084.559.6.6,0,0,1,.112.07,7.91,7.91,0,0,1-3.178,2.283,7.869,7.869,0,0,1-4.636.38,7.922,7.922,0,0,1-4.557-2.778,7.811,7.811,0,0,1-1.824-5.414,8.066,8.066,0,0,1,5.645-7.388,7.878,7.878,0,0,1,5.125.1A7.914,7.914,0,0,1-1639.947-343.791Z" transform="translate(0 0)" fill="#81bc06"/>
      <path id="Path_4617" data-name="Path 4617" d="M-845.513-192.214v2.678h-2.113v-8.684c.049,0,.094-.006.139-.006h4.058a2.818,2.818,0,0,1,1.677.5,2.7,2.7,0,0,1,1.087,1.684,3.394,3.394,0,0,1-.265,2.357,2.514,2.514,0,0,1-2.15,1.44c-.746.052-1.5.025-2.247.033Zm0-1.828c.627,0,1.24.018,1.851-.007a.9.9,0,0,0,.822-.592,1.586,1.586,0,0,0,.093-.834.987.987,0,0,0-1.052-.935h-1.563c-.048,0-.1,0-.151.007Z" transform="translate(-784.844 -144.934)" fill="#81bc06"/>
      <path id="Path_4618" data-name="Path 4618" d="M-1506.991-196.089h-2.629v6.872h-2.129v-6.869h-2.635V-197.9h7.393Z" transform="translate(-136.385 -145.254)" fill="#81bc06"/>
    </g>
  </g>
</svg>
