<svg xmlns="http://www.w3.org/2000/svg" width="53" height="53" viewBox="0 0 53 53">
  <g id="training_centre_icon" transform="translate(-442 -160)">
    <g id="Ellipse_150" data-name="Ellipse 150" transform="translate(442 160)" fill="none" stroke="#fc9016" stroke-width="1">
      <circle cx="26.5" cy="26.5" r="26.5" stroke="none"/>
      <circle cx="26.5" cy="26.5" r="26" fill="none"/>
    </g>
    <path id="Path_4603" data-name="Path 4603" d="M24.681,24.681l-.05-8.194h.795V14.252h-1.49v-2.72L19.666,5.1H13.928l-.843-1.28V2.235h2.98V0H12.34V3.823L11.5,5.1H5.759l-4.27,6.43v2.72H0v2.235H.795l-.05,8.194h.795V16.487h6.7v8.194H0v.745H25.426v-.745H17.182V16.487h6.7l.05,8.194ZM13.085.745H15.32V1.49H13.085Zm4.1,13.507V12.018h6.009v2.235Zm2.085-8.4,3.6,5.425H17.927V9.783H17.01L14.419,5.848ZM16.119,9.783H9.307l3.406-5.171ZM6.159,5.848h4.848L8.415,9.783H7.5v1.49H2.557Zm-3.924,6.17H8.243v2.235H2.235ZM.745,15.742V15h7.5v.745Zm12.713,8.939h-1.49V18.722a.745.745,0,1,1,1.49,0Zm.745,0V18.722a1.49,1.49,0,1,0-2.98,0v5.959H8.988V12.018H12.34v-.745h-4.1v-.745h8.939v.745H12.34v.745h4.1V24.681ZM17.182,15h7.5v.745h-7.5Z" transform="translate(455.787 171.832)" fill="#fe9116"/>
  </g>
</svg>
