<svg xmlns="http://www.w3.org/2000/svg" width="27.769" height="37.999" viewBox="0 0 27.769 37.999">
  <g id="athletes" transform="translate(0 0)">
    <path id="Path_78" data-name="Path 78" d="M119.405,35.827l-4.094,2.785c.94,1.619,1.855,3.172,2.753,4.745.687,1.2,1.394,2.386,2.018,3.623a2.274,2.274,0,0,1-1.755,3.544.276.276,0,0,1-.089.005c-1.745-.38-2.828.676-3.931,1.934-1.693,1.932-3.506,3.744-5.288,5.58a6.247,6.247,0,0,1-1.366,1.057,1.93,1.93,0,0,1-2.407-.22,2.425,2.425,0,0,1-.369-2.755,16.666,16.666,0,0,1,1.718-2.434,32.76,32.76,0,0,0,2.429-3.161c-1.116,0-2.233.012-3.349,0a2.282,2.282,0,0,1-2.422-2.24,2.23,2.23,0,0,1,2.159-2.424c2.158-.182,4.326-.232,6.491-.337.285-.014.571-.033.987-.059-.978-1.562-1.892-3.008-2.8-4.458-.531-.849-1.06-1.7-1.578-2.555a3.853,3.853,0,0,1,.624-5.237c1.359-1.234,2.858-2.287,4.3-3.413.624-.487,1.259-.957,2.006-1.524-1.048-.865-1.747-1.994-3.318-1.861-2.155.182-4.332.065-6.5.059-1.18,0-1.917-.5-2.1-1.361a2.049,2.049,0,0,1,1.422-2.348,11.886,11.886,0,0,1,2.679-.606c1.912-.271,3.832-.465,5.747-.711a3.362,3.362,0,0,1,2.6.7c1.331,1.019,2.737,1.924,4.058,2.956a10.813,10.813,0,0,1,4.223,8.172c.042.634.117,1.267.181,1.956,1.115.084,2.175.166,3.235.24.3.021.594.013.89.026,1.549.067,2.262.639,2.275,1.819a2.261,2.261,0,0,1-2.25,2.232c-2.22.165-4.443.28-6.668.373-1.141.048-1.678-.4-2-1.606C119.708,37.565,119.593,36.775,119.405,35.827Zm-14.411-11.4c.03.131.06.264.09.394a5.355,5.355,0,0,0,.673.083c1.631,0,3.266.005,4.9-.018,3.284-.048,3.284-.056,5.834,2.169.092.08.184.162.274.246.959.9.954,1.146-.074,1.943-2.07,1.609-4.169,3.178-6.212,4.827-1.456,1.175-1.571,2.165-.571,3.775,1.586,2.555,3.19,5.1,4.768,7.655.642,1.042.408,1.532-.729,1.569-2.255.074-4.511.123-6.767.2a7.184,7.184,0,0,0-1.762.212,1,1,0,0,0-.578.759c.018.246.395.545.672.691a1.811,1.811,0,0,0,.792.04q5.611-.006,11.223-.019c1.522-.005,1.751-.4.963-1.795q-2.3-4.053-4.668-8.066c-.388-.659-.326-1.1.287-1.51.832-.557,1.637-1.159,2.461-1.731,1.721-1.194,3.45-2.375,5.167-3.576.426-.3.969-.71.644-1.3A17.126,17.126,0,0,0,119.832,27,34.952,34.952,0,0,0,115,23.409a2.134,2.134,0,0,0-1.325-.367q-3.368.324-6.723.793A14.108,14.108,0,0,0,104.995,24.429Zm8.82,26.37-.082-.245c-.67,0-1.341-.025-2.01.015a.961.961,0,0,0-.6.313c-1.506,1.719-3.026,3.426-4.461,5.213-.3.374-.265,1.057-.385,1.6.468-.176,1.052-.211,1.386-.543C109.742,55.074,111.769,52.928,113.815,50.8Zm15.55-13.233c-.034-.122-.069-.242-.1-.364-.287-.037-.571-.088-.861-.107-1.393-.088-2.786-.176-4.18-.227-.8-.032-1.281-.323-1.27-1.3a14.966,14.966,0,0,0-.208-1.884c-1.934.865-2.007,1-1.662,3.008.043.252.111.5.139.753.077.679.351,1,1.051.946,2.012-.164,4.03-.246,6.042-.405A3.906,3.906,0,0,0,129.364,37.566Z" transform="translate(-103.25 -21.418)" fill="#ff475d"/>
    <path id="Path_79" data-name="Path 79" d="M351.654,26.067a4.217,4.217,0,0,1-4.038,4.432,3.971,3.971,0,0,1-2.931-1.3,4.644,4.644,0,0,1-1.215-3.16A4.328,4.328,0,0,1,347.5,21.67,4.2,4.2,0,0,1,351.654,26.067Zm-4.114,2.787a2.659,2.659,0,0,0,2.653-2.732,2.748,2.748,0,0,0-2.558-2.872,2.809,2.809,0,0,0-2.677,2.874A2.7,2.7,0,0,0,347.54,28.854Z" transform="translate(-323.884 -21.647)" fill="#ff475d"/>
  </g>
</svg>
