<svg xmlns="http://www.w3.org/2000/svg" width="14.534" height="19.888" viewBox="0 0 14.534 19.888">
  <g id="athletes" transform="translate(0 0)">
    <path id="Path_78" data-name="Path 78" d="M111.705,28.96l-2.143,1.458c.492.847.971,1.66,1.441,2.484.359.627.73,1.249,1.056,1.9a1.19,1.19,0,0,1-.919,1.855.145.145,0,0,1-.047,0c-.913-.2-1.48.354-2.057,1.012-.886,1.011-1.835,1.96-2.768,2.92a3.27,3.27,0,0,1-.715.553,1.01,1.01,0,0,1-1.26-.115,1.269,1.269,0,0,1-.193-1.442,8.723,8.723,0,0,1,.9-1.274,17.146,17.146,0,0,0,1.271-1.654c-.584,0-1.169.006-1.753,0a1.194,1.194,0,0,1-1.268-1.172,1.167,1.167,0,0,1,1.13-1.269c1.13-.1,2.264-.121,3.4-.177.149-.007.3-.018.516-.031-.512-.818-.99-1.575-1.465-2.333-.278-.445-.555-.889-.826-1.338a2.017,2.017,0,0,1,.326-2.741c.711-.646,1.5-1.2,2.251-1.786.326-.255.659-.5,1.05-.8-.549-.453-.914-1.044-1.737-.974-1.128.1-2.267.034-3.4.031-.617,0-1-.262-1.1-.713a1.072,1.072,0,0,1,.744-1.229,6.221,6.221,0,0,1,1.4-.317c1-.142,2.006-.244,3.008-.372a1.76,1.76,0,0,1,1.359.369c.7.533,1.433,1.007,2.124,1.547a5.66,5.66,0,0,1,2.21,4.277c.022.332.061.663.095,1.024.583.044,1.139.087,1.693.125.155.011.311.007.466.013.811.035,1.184.334,1.191.952a1.183,1.183,0,0,1-1.178,1.168c-1.162.086-2.326.147-3.49.2-.6.025-.878-.208-1.048-.841C111.864,29.869,111.8,29.456,111.705,28.96Zm-7.542-5.966.047.206a2.8,2.8,0,0,0,.352.043c.853,0,1.709,0,2.564-.01,1.719-.025,1.719-.03,3.053,1.136.048.042.1.085.143.129.5.47.5.6-.039,1.017-1.083.842-2.182,1.664-3.251,2.527a1.264,1.264,0,0,0-.3,1.976c.83,1.338,1.67,2.667,2.5,4.007.336.545.213.8-.381.821-1.18.039-2.361.065-3.542.107a3.76,3.76,0,0,0-.922.111.526.526,0,0,0-.3.4c.009.129.207.285.352.362a.948.948,0,0,0,.414.021q2.937,0,5.874-.01c.8,0,.917-.212.5-.939q-1.2-2.122-2.443-4.221c-.2-.345-.171-.576.15-.791.435-.291.857-.606,1.288-.906.9-.625,1.806-1.243,2.7-1.872.223-.156.507-.372.337-.68a8.964,8.964,0,0,0-1.332-2.085A18.294,18.294,0,0,0,109.4,22.46a1.117,1.117,0,0,0-.693-.192q-1.763.17-3.519.415A7.384,7.384,0,0,0,104.163,22.994Zm4.616,13.8-.043-.128c-.351,0-.7-.013-1.052.008a.5.5,0,0,0-.316.164c-.788.9-1.584,1.793-2.335,2.729-.157.2-.139.553-.2.84.245-.092.55-.11.725-.284C106.648,39.034,107.709,37.91,108.779,36.8Zm8.139-6.926-.054-.19c-.15-.019-.3-.046-.451-.056-.729-.046-1.458-.092-2.188-.119-.419-.017-.67-.169-.665-.683a7.833,7.833,0,0,0-.109-.986c-1.012.453-1.051.524-.87,1.575.023.132.058.262.073.394.04.355.184.525.55.495,1.053-.086,2.109-.129,3.162-.212A2.044,2.044,0,0,0,116.918,29.87Z" transform="translate(-103.25 -21.418)" fill="#ff475d"/>
    <path id="Path_79" data-name="Path 79" d="M347.753,23.971a2.207,2.207,0,0,1-2.114,2.32,2.078,2.078,0,0,1-1.534-.679,2.431,2.431,0,0,1-.636-1.654,2.265,2.265,0,0,1,2.111-2.289A2.2,2.2,0,0,1,347.753,23.971ZM345.6,25.43A1.392,1.392,0,0,0,346.989,24a1.438,1.438,0,0,0-1.339-1.5,1.47,1.47,0,0,0-1.4,1.5A1.414,1.414,0,0,0,345.6,25.43Z" transform="translate(-333.219 -21.658)" fill="#ff475d"/>
  </g>
</svg>
