<svg xmlns="http://www.w3.org/2000/svg" width="16.688" height="14.87" viewBox="0 0 16.688 14.87">
  <g id="Traing_Center" data-name="Traing Center" transform="translate(0 0.003)">
    <path id="Path_73" data-name="Path 73" d="M0,437.365a.432.432,0,0,1,.46-.285l15.774,0c.3,0,.488.17.449.4a.35.35,0,0,1-.3.3,1.236,1.236,0,0,1-.179.007l-15.709,0A.472.472,0,0,1,0,437.528Z" transform="translate(0 -422.926)" fill="#fff"/>
    <path id="Path_74" data-name="Path 74" d="M78.932,236.34h5.441c.386,0,.494.108.494.493v4.758c0,.358-.122.483-.475.483H73.477c-.355,0-.477-.125-.477-.481v-4.773c0-.363.113-.479.475-.479Zm-5.21.709v4.305h2.056v-4.305Zm2.785,0v4.3h2.057v-4.3Zm2.789,4.3h2.067v-4.3H79.3Zm4.848.007v-4.3H82.089v4.3Z" transform="translate(-70.588 -228.818)" fill="#fff"/>
    <path id="Path_75" data-name="Path 75" d="M157.11,15.121a3.262,3.262,0,1,1,3.271-3.256A3.265,3.265,0,0,1,157.11,15.121Zm-.035-3.69a4.535,4.535,0,0,1-2.381,1.234,2.579,2.579,0,0,0,1.343,1.509,4.524,4.524,0,0,1,1.509-2.225Zm.492-.507.544.6,1.421-.5a2.522,2.522,0,0,0-1.291-1.454Zm-.853,3.461a2.557,2.557,0,0,0,1.693-.325.169.169,0,0,0,.043-.148c-.062-.241-.125-.482-.21-.715s-.191-.43-.3-.658A3.774,3.774,0,0,0,156.715,14.385Zm-.164-3.428c-.4-.191-.756-.381-1.127-.535-.347-.144-.356-.13-.539.2a2.43,2.43,0,0,0-.312,1.339A3.778,3.778,0,0,0,156.551,10.956Zm1.014-1.619a2.607,2.607,0,0,0-1.848.4l1.311.7Zm2.1,2.419a3.632,3.632,0,0,0-1.111.383l.55,1.328a2.52,2.52,0,0,0,.561-1.712Z" transform="translate(-148.775 -8.6)" fill="#fff"/>
    <path id="Path_76" data-name="Path 76" d="M20.41,141.877v7.644a1.292,1.292,0,0,1-.019.243.336.336,0,0,1-.334.277.34.34,0,0,1-.335-.258.855.855,0,0,1-.018-.21v-7.935c0-.345.124-.469.472-.469h3.047a.372.372,0,0,1,.39.355.361.361,0,0,1-.406.351c-.864,0-1.727,0-2.591,0Z" transform="translate(-19.051 -136.793)" fill="#fff"/>
    <path id="Path_77" data-name="Path 77" d="M370.547,141.858h-1.654c-.391,0-.782,0-1.173,0a.343.343,0,0,1-.361-.289.33.33,0,0,1,.179-.366.647.647,0,0,1,.252-.049q1.515,0,3.031,0c.306,0,.436.134.436.439v8c0,.256-.106.4-.308.426a.333.333,0,0,1-.377-.257,1.232,1.232,0,0,1-.022-.259v-7.413Z" transform="translate(-355.215 -136.773)" fill="#fff"/>
  </g>
</svg>
