<svg xmlns="http://www.w3.org/2000/svg" width="4.771" height="7.481" viewBox="0 0 4.771 7.481">
  <path id="rupesss" d="M5.161.26a.2.2,0,0,1,.113.215V.923c0,.148-.056.219-.219.219H3.882a1.611,1.611,0,0,1,.123.2c.07.166.134.335.2.508,0,.046.032.063.081.063h.8c.152,0,.208.056.208.208v.465c0,.155-.056.2-.208.2H4.3c-.046,0-.067,0-.074.063a1.97,1.97,0,0,1-.663,1.17,2.513,2.513,0,0,1-1.107.536c-.113.025-.226.042-.352.063l.067.074c.818.888,1.586,1.819,2.355,2.753a.166.166,0,0,1,.035.194.169.169,0,0,1-.176.1H3.374A.226.226,0,0,1,3.2,7.651c-.472-.56-.945-1.124-1.41-1.681C1.435,5.547,1.037,5.131.66,4.715a.352.352,0,0,1-.116-.293c0-.18,0-.352,0-.539a.183.183,0,0,1,.19-.19c.3,0,.6,0,.906-.021a1.717,1.717,0,0,0,.948-.331.976.976,0,0,0,.352-.5V2.787H.755c-.176,0-.229-.053-.229-.226V2.111c0-.145.06-.2.2-.2H2.888l-.046-.085a.987.987,0,0,0-.5-.381,2.506,2.506,0,0,0-.913-.134H.762c-.18,0-.236-.053-.236-.236V.482A.211.211,0,0,1,.646.26Z" transform="translate(-0.524 -0.26)" fill="#eb4886"/>
</svg>
