<svg xmlns="http://www.w3.org/2000/svg" width="8.747" height="13.715" viewBox="0 0 8.747 13.715">
  <path id="rupesss" d="M9.025.26a.375.375,0,0,1,.207.394v.821c0,.271-.1.4-.4.4H6.68a2.953,2.953,0,0,1,.226.362c.129.3.246.614.362.931,0,.084.058.116.149.116H8.89c.278,0,.381.1.381.381v.853c0,.284-.1.375-.381.375H7.442c-.084,0-.123,0-.136.116A3.612,3.612,0,0,1,6.092,7.155a4.607,4.607,0,0,1-2.029.982c-.207.045-.414.078-.646.116l.123.136c1.5,1.628,2.908,3.334,4.317,5.047a.3.3,0,0,1,.065.355.31.31,0,0,1-.323.181H5.749a.414.414,0,0,1-.323-.162c-.866-1.027-1.732-2.061-2.585-3.082-.646-.775-1.376-1.538-2.068-2.3A.646.646,0,0,1,.56,7.892c0-.33,0-.646,0-.989a.336.336,0,0,1,.349-.349c.549,0,1.105,0,1.661-.039a3.147,3.147,0,0,0,1.738-.607,1.79,1.79,0,0,0,.646-.918v-.1H.948c-.323,0-.42-.1-.42-.414V3.653c0-.265.11-.368.375-.368H4.857l-.084-.155a1.809,1.809,0,0,0-.911-.7,4.6,4.6,0,0,0-1.674-.246H.961c-.33,0-.433-.1-.433-.433V.667A.388.388,0,0,1,.747.26Z" transform="translate(-0.524 -0.26)" fill="#eb4886"/>
</svg>
