<svg xmlns="http://www.w3.org/2000/svg" width="23.487" height="32.999" viewBox="0 0 23.487 32.999">
  <path id="Coaches" d="M100.6,37.042a26.254,26.254,0,0,1,3.507.026,6.144,6.144,0,0,1,5.094,6.051c.064,1.979.018,3.957.032,5.936,0,.674-.344.815-.886.811-2.426-.015-4.853-.006-7.279-.006h-.862c-.011.247-.029.436-.025.625.008.473-.226.676-.634.678-.986,0-1.968.017-2.952,0-.571-.011-.623-.123-.737-1.3H86.751c-.871,0-.993-.129-.986-1.07.021-2.076-.089-4.167.109-6.224a6.027,6.027,0,0,1,5.851-5.625c.867-.022,1.736,0,2.611,0A3.393,3.393,0,0,0,93.2,34.533a6.53,6.53,0,0,1-2.082-4.975c-.1-2.246-.057-4.5-.025-6.752a4.54,4.54,0,0,1,4.067-4.581,28.548,28.548,0,0,1,5.333.152,4.293,4.293,0,0,1,3.37,4.281c.059,2.472.08,4.946-.009,7.419a6.556,6.556,0,0,1-2.093,4.519C100.892,35.447,100.887,35.441,100.6,37.042ZM95.839,48.725c.137-.9.117-.883-.352-1.552a3.919,3.919,0,0,1-.535-1.1,3.075,3.075,0,0,1,.806-2.979l-.587-1.065c-.233.157-.408.272-.581.391s-.343.244-.518.361c-.66.442-.894.355-1.148-.448-.384-1.212-.781-2.421-1.127-3.648-.141-.5-.348-.65-.827-.579a5.305,5.305,0,0,0-4.114,5.942H88.13c1.69,0,1.619-.173,1.607,1.7-.006.978,0,1.956,0,2.968Zm12.3-4.673a5.315,5.315,0,0,0-4.037-5.913c-.412-.072-.647-.017-.794.5-.36,1.272-.8,2.515-1.221,3.768-.231.692-.5.8-1.082.431-.385-.244-.759-.511-1.165-.785-.211.39-.381.707-.568,1.052,1.559,1.616.619,3.722.986,5.61h5.281c.019-.214.046-.38.046-.55,0-1.014-.006-2.027,0-3.044,0-.979.081-1.065.961-1.075.521,0,1.042,0,1.593,0ZM92.12,27.62c-.259,2.827.188,5.227,2.476,6.773a4.868,4.868,0,0,0,5.881-.043c1.981-1.361,2.816-3.809,2.355-6.642-.206.425-.375.822-.583,1.194a1.386,1.386,0,0,1-1.81.756,7.856,7.856,0,0,0-5.957.013,1.286,1.286,0,0,1-1.756-.794C92.535,28.5,92.358,28.114,92.12,27.62Zm9.083,1.262,1.417-3.2H92.367L93.8,28.888a8.337,8.337,0,0,1,7.406-.006Zm-1.291-4.328a13.143,13.143,0,0,0-.732-4.447c-.225-.676-.58-1-1.271-.89a4.525,4.525,0,0,1-1.165,0c-.416-.043-.629.164-.782.544a12.517,12.517,0,0,0-.894,4.794Zm-.737,25.458c0-1.688.049-3.338-.021-4.982a1.625,1.625,0,0,0-3.144-.447,1.754,1.754,0,0,0,.442,2.072,1.348,1.348,0,0,1,.471,1.218c-.028.706-.007,1.415-.007,2.143ZM92.108,24.6c.544,0,1.1.022,1.661-.018.112-.008.282-.236.3-.386.274-1.627.525-3.259.774-4.844C92.852,19.658,91.875,21.4,92.108,24.6Zm8.048-5.238c.248,1.6.493,3.233.77,4.863a.561.561,0,0,0,.392.361c.515.044,1.035.018,1.539.018.332-2.985-.813-5.045-2.7-5.242ZM98.472,39.8l2.781,1.885,1.19-3.676c-.809,0-1.468-.02-2.126.013a.863.863,0,0,0-.512.279C99.367,38.766,98.955,39.257,98.472,39.8ZM93.8,41.679l2.614-1.854c-.949-1.365-2-2.359-3.7-1.638Zm5.965-5.735a6.233,6.233,0,0,1-4.559-.018,4.819,4.819,0,0,0,1.956,2.947.635.635,0,0,0,.592-.013,5.1,5.1,0,0,0,2.008-2.916ZM86.857,45.152V48.69h1.857V45.15ZM108.2,48.728c0-1.1.02-2.107-.02-3.116a.665.665,0,0,0-.426-.461,5.537,5.537,0,0,0-1.1-.021v3.6Zm-9.242-7.223c-1.479-1.241-1.667-1.241-2.892-.028a4.1,4.1,0,0,0,.38.685.863.863,0,0,0,.5.328c.465.045.937.015,1.46.015Z" transform="translate(-85.754 -18.171)" fill="#207707"/>
</svg>
