<svg id="settings-5-line" xmlns="http://www.w3.org/2000/svg" width="16" height="16" viewBox="0 0 16 16">
  <path id="Path_133" data-name="Path 133" d="M0,0H16V16H0Z" fill="none"/>
  <path id="Path_134" data-name="Path 134" d="M2.141,10.039a6.63,6.63,0,0,1,0-2.747,1.453,1.453,0,0,0,1.6-.667,1.452,1.452,0,0,0-.657-1.6A6.63,6.63,0,0,1,5.023,3.081a1.452,1.452,0,0,0,1.6.657,1.451,1.451,0,0,0,.667-1.6,6.63,6.63,0,0,1,2.747,0,1.453,1.453,0,0,0,.667,1.6,1.452,1.452,0,0,0,1.6-.657A6.63,6.63,0,0,1,14.25,5.023a1.452,1.452,0,0,0-.657,1.6,1.451,1.451,0,0,0,1.6.667,6.63,6.63,0,0,1,0,2.747,1.453,1.453,0,0,0-1.6.667,1.452,1.452,0,0,0,.657,1.6,6.63,6.63,0,0,1-1.942,1.942,1.452,1.452,0,0,0-1.6-.657,1.451,1.451,0,0,0-.667,1.6,6.63,6.63,0,0,1-2.747,0,1.453,1.453,0,0,0-.667-1.6,1.452,1.452,0,0,0-1.6.657,6.63,6.63,0,0,1-1.942-1.942,1.452,1.452,0,0,0,.657-1.6A1.451,1.451,0,0,0,2.141,10.039ZM3.332,8.806A2.353,2.353,0,0,1,4.8,12.338q.1.1.2.2A2.353,2.353,0,0,1,8.526,14q.14,0,.28,0a2.353,2.353,0,0,1,3.532-1.463q.1-.1.2-.2A2.353,2.353,0,0,1,14,8.806q0-.14,0-.28a2.353,2.353,0,0,1-1.463-3.532q-.1-.1-.2-.2A2.353,2.353,0,0,1,8.806,3.332q-.14,0-.28,0A2.353,2.353,0,0,1,4.994,4.8q-.1.1-.2.2A2.353,2.353,0,0,1,3.332,8.526Q3.328,8.666,3.332,8.806Zm5.333,1.86a2,2,0,1,1,2-2A2,2,0,0,1,8.666,10.666Zm0-1.333A.667.667,0,1,0,8,8.666.667.667,0,0,0,8.666,9.332Z" transform="translate(-0.666 -0.666)" fill="#0c9b83"/>
</svg>
