<svg id="settings-5-line" xmlns="http://www.w3.org/2000/svg" width="24.959" height="24.959" viewBox="0 0 24.959 24.959">
  <path id="Path_133" data-name="Path 133" d="M0,0H24.959V24.959H0Z" fill="none"/>
  <path id="Path_134" data-name="Path 134" d="M2.222,14.542a10.342,10.342,0,0,1,0-4.285A2.266,2.266,0,0,0,4.713,9.216a2.265,2.265,0,0,0-1.025-2.5A10.342,10.342,0,0,1,6.717,3.688a2.266,2.266,0,0,0,2.5,1.025,2.264,2.264,0,0,0,1.041-2.492,10.342,10.342,0,0,1,4.285,0,2.266,2.266,0,0,0,1.041,2.492,2.265,2.265,0,0,0,2.5-1.025,10.342,10.342,0,0,1,3.029,3.029,2.266,2.266,0,0,0-1.025,2.5,2.264,2.264,0,0,0,2.492,1.041,10.342,10.342,0,0,1,0,4.285,2.266,2.266,0,0,0-2.492,1.041,2.265,2.265,0,0,0,1.025,2.5,10.342,10.342,0,0,1-3.029,3.029,2.266,2.266,0,0,0-2.5-1.025,2.264,2.264,0,0,0-1.041,2.492,10.342,10.342,0,0,1-4.285,0,2.266,2.266,0,0,0-1.041-2.492,2.265,2.265,0,0,0-2.5,1.025,10.342,10.342,0,0,1-3.029-3.029,2.266,2.266,0,0,0,1.025-2.5A2.264,2.264,0,0,0,2.222,14.542ZM4.08,12.618a3.67,3.67,0,0,1,2.283,5.51q.15.159.309.309a3.67,3.67,0,0,1,5.51,2.283q.218.006.437,0a3.67,3.67,0,0,1,5.51-2.283q.159-.15.309-.309a3.67,3.67,0,0,1,2.283-5.51q.006-.218,0-.437a3.67,3.67,0,0,1-2.283-5.51q-.15-.158-.309-.309a3.67,3.67,0,0,1-5.51-2.283q-.218-.006-.437,0a3.67,3.67,0,0,1-5.51,2.283q-.159.15-.309.309a3.67,3.67,0,0,1-2.283,5.51Q4.074,12.4,4.08,12.618Zm8.32,2.9a3.12,3.12,0,1,1,3.12-3.12A3.12,3.12,0,0,1,12.4,15.52Zm0-2.08a1.04,1.04,0,1,0-1.04-1.04A1.04,1.04,0,0,0,12.4,13.44Z" transform="translate(0.08 0.08)" fill="#0c9b83"/>
</svg>
