<svg id="shopping-cart-2-line" xmlns="http://www.w3.org/2000/svg" width="29" height="29" viewBox="0 0 29 29">
  <path id="Path_131" data-name="Path 131" d="M0,0H29V29H0Z" fill="none"/>
  <path id="Path_132" data-name="Path 132" d="M4.676,7.384.757,3.467l1.71-1.71L6.384,5.676H24.8a1.208,1.208,0,0,1,1.158,1.555l-2.9,9.667a1.208,1.208,0,0,1-1.158.862H7.092v2.417H20.384v2.417H5.884a1.208,1.208,0,0,1-1.208-1.208Zm2.417.708v7.25H21l2.175-7.25Zm-.6,19.333A1.813,1.813,0,1,1,8.3,25.613,1.813,1.813,0,0,1,6.488,27.426Zm14.5,0A1.813,1.813,0,1,1,22.8,25.613,1.813,1.813,0,0,1,20.988,27.426Z" transform="translate(0.158 0.366)" fill="#ffa407"/>
</svg>
