<svg id="shopping-cart-2-line" xmlns="http://www.w3.org/2000/svg" width="16" height="16" viewBox="0 0 16 16">
  <path id="Path_131" data-name="Path 131" d="M0,0H16V16H0Z" fill="none"/>
  <path id="Path_132" data-name="Path 132" d="M2.919,4.862.757,2.7,1.7,1.757,3.862,3.919H14.023a.667.667,0,0,1,.639.858l-1.6,5.333a.667.667,0,0,1-.639.475H4.252v1.333h7.333v1.333h-8a.667.667,0,0,1-.667-.667Zm1.333.391v4h7.675l1.2-4ZM3.919,15.919a1,1,0,1,1,1-1A1,1,0,0,1,3.919,15.919Zm8,0a1,1,0,1,1,1-1A1,1,0,0,1,11.919,15.919Z" transform="translate(-0.252 -0.586)" fill="#ffa407"/>
</svg>
