<svg xmlns="http://www.w3.org/2000/svg" width="25.959" height="25" viewBox="0 0 25.959 25">
  <g id="Traing_Center" data-name="Traing Center" transform="translate(0 0)">
    <path id="Path_73" data-name="Path 73" d="M0,437.559a.67.67,0,0,1,.715-.479q12.269,0,24.538,0c.471,0,.759.286.7.68a.566.566,0,0,1-.473.5,1.793,1.793,0,0,1-.278.011q-12.219,0-24.437.005A.725.725,0,0,1,0,437.833Z" transform="translate(0 -413.279)" fill="#2a39de"/>
    <path id="Path_74" data-name="Path 74" d="M82.228,236.34h8.465c.6,0,.768.182.768.829v8c0,.6-.189.813-.739.813H73.742c-.552,0-.742-.21-.742-.809v-8.025c0-.611.176-.805.739-.806Zm-8.1,1.193v7.238h3.2v-7.238Zm4.333,0v7.238h3.2v-7.237Zm4.339,7.236H86.01v-7.225H82.8Zm7.541.011v-7.236h-3.2v7.237Z" transform="translate(-69.248 -223.69)" fill="#2a39de"/>
    <path id="Path_75" data-name="Path 75" d="M158.917,19.566a5.3,5.3,0,0,1-5.059-5.505,5.089,5.089,0,1,1,10.148.032A5.292,5.292,0,0,1,158.917,19.566Zm-.054-6.2a6.892,6.892,0,0,1-3.7,2.074,4.24,4.24,0,0,0,2.09,2.537,7.656,7.656,0,0,1,2.348-3.741Zm.765-.853.846,1.006,2.21-.844a4.148,4.148,0,0,0-2.009-2.444Zm-1.326,5.82a3.731,3.731,0,0,0,2.633-.547.3.3,0,0,0,.067-.248c-.1-.4-.194-.811-.327-1.2-.126-.369-.3-.722-.459-1.107A6.4,6.4,0,0,0,158.3,18.328Zm-.254-5.764c-.62-.321-1.175-.64-1.754-.9-.54-.243-.554-.218-.838.338a4.356,4.356,0,0,0-.485,2.251A5.731,5.731,0,0,0,158.047,12.564Zm1.578-2.722a3.815,3.815,0,0,0-2.874.667l2.04,1.18Zm3.271,4.067a5.375,5.375,0,0,0-1.728.644l.856,2.232a4.464,4.464,0,0,0,.872-2.878Z" transform="translate(-145.951 -8.597)" fill="#2a39de"/>
    <path id="Path_76" data-name="Path 76" d="M20.8,142.359v12.852a2.344,2.344,0,0,1-.03.408.527.527,0,0,1-1.041.033,1.55,1.55,0,0,1-.028-.353v-13.34c0-.58.193-.789.734-.789h4.74a.6.6,0,0,1,.606.6.58.58,0,0,1-.632.591c-1.343,0-2.686,0-4.03,0Z" transform="translate(-18.69 -133.806)" fill="#2a39de"/>
    <path id="Path_77" data-name="Path 77" d="M372.323,142.34H369.75c-.609,0-1.216.006-1.825,0a.546.546,0,0,1-.561-.485.57.57,0,0,1,.279-.615.943.943,0,0,1,.392-.083q2.357-.008,4.714,0c.476,0,.678.226.678.738v13.45c0,.431-.164.671-.479.715a.521.521,0,0,1-.586-.433,2.242,2.242,0,0,1-.034-.435V142.726Z" transform="translate(-348.472 -133.787)" fill="#2a39de"/>
  </g>
</svg>
