<svg id="lock-line" xmlns="http://www.w3.org/2000/svg" width="12.499" height="12.499" viewBox="0 0 12.499 12.499">
  <path id="Path_6320" data-name="Path 6320" d="M0,0H12.5V12.5H0Z" fill="none"/>
  <path id="Path_6321" data-name="Path 6321" d="M11.333,6.166h.521a.521.521,0,0,1,.521.521V11.9a.521.521,0,0,1-.521.521H3.521A.521.521,0,0,1,3,11.9V6.687a.521.521,0,0,1,.521-.521h.521V5.646a3.646,3.646,0,1,1,7.291,0ZM4.042,7.208v4.166h7.291V7.208ZM7.166,8.25H8.208v2.083H7.166Zm3.125-2.083V5.646a2.6,2.6,0,1,0-5.208,0v.521Z" transform="translate(-1.438 -0.958)" fill="#b1b6c2"/>
</svg>
