<svg id="smartphone-line" xmlns="http://www.w3.org/2000/svg" width="13.999" height="13.999" viewBox="0 0 13.999 13.999">
  <path id="Path_11503" data-name="Path 11503" d="M0,0H14V14H0Z" fill="none"/>
  <path id="Path_11504" data-name="Path 11504" d="M6.167,3.167V12.5H12V3.167ZM5.583,2h7a.583.583,0,0,1,.583.583v10.5a.583.583,0,0,1-.583.583h-7A.583.583,0,0,1,5,13.082V2.583A.583.583,0,0,1,5.583,2Zm3.5,8.749a.583.583,0,1,1-.583.583A.583.583,0,0,1,9.083,10.749Z" transform="translate(-2.084 -0.833)" fill="#b1b6c2"/>
</svg>
