<svg id="user-6-line" xmlns="http://www.w3.org/2000/svg" width="16" height="16" viewBox="0 0 16 16">
  <path id="Path_6318" data-name="Path 6318" d="M0,0H16V16H0Z" fill="none"/>
  <path id="Path_6319" data-name="Path 6319" d="M9.131,12a7.12,7.12,0,0,1,5.738,2.617l-1.228.581a5.912,5.912,0,0,0-4.51-1.864A5.912,5.912,0,0,0,4.621,15.2l-1.227-.581A7.118,7.118,0,0,1,9.131,12Zm0-10a3.333,3.333,0,0,1,3.333,3.333v2a3.333,3.333,0,0,1-3.188,3.33l-.145,0A3.333,3.333,0,0,1,5.8,7.333v-2A3.333,3.333,0,0,1,8.986,2Zm0,1.333a2,2,0,0,0-2,1.883l0,.117v2a2,2,0,0,0,4,.117l0-.117v-2a2,2,0,0,0-2-2Z" transform="translate(-1.131 -0.667)" fill="#b1b6c2"/>
</svg>
